<svg xmlns="http://www.w3.org/2000/svg" xmlns:xlink="http://www.w3.org/1999/xlink" width="1080" zoomAndPan="magnify" viewBox="0 0 810 809.999993" height="1080" preserveAspectRatio="xMidYMid meet" version="1.0"><defs><g/><clipPath id="e2800e3e88"><path d="M 151 362 L 659.707031 362 L 659.707031 449 L 151 449 Z M 151 362 " clip-rule="nonzero"/></clipPath></defs><g fill="#daa520" fill-opacity="1"><g transform="translate(50.97878, 307.903935)"><g><path d="M 102.9375 -159.28125 C 113.457031 -159.28125 122.304688 -158.53125 129.484375 -157.03125 C 136.660156 -155.53125 143.835938 -152.941406 151.015625 -149.265625 C 152.191406 -148.597656 152.863281 -148.015625 153.03125 -147.515625 C 153.195312 -147.015625 153.445312 -145.765625 153.78125 -143.765625 L 156.78125 -113.953125 C 156.78125 -113.453125 156.320312 -113.160156 155.40625 -113.078125 C 154.488281 -112.992188 153.945312 -113.203125 153.78125 -113.703125 C 146.09375 -141.585938 128.894531 -155.53125 102.1875 -155.53125 C 88.15625 -155.53125 75.796875 -152.441406 65.109375 -146.265625 C 54.429688 -140.085938 46.171875 -131.28125 40.328125 -119.84375 C 34.484375 -108.40625 31.5625 -95.085938 31.5625 -79.890625 C 31.5625 -65.367188 34.773438 -52.054688 41.203125 -39.953125 C 47.628906 -27.847656 56.3125 -18.285156 67.25 -11.265625 C 78.1875 -4.253906 90.082031 -0.75 102.9375 -0.75 C 116.625 -0.75 127.722656 -4.085938 136.234375 -10.765625 C 144.753906 -17.441406 151.269531 -27.628906 155.78125 -41.328125 C 155.78125 -41.660156 156.195312 -41.828125 157.03125 -41.828125 C 158.195312 -41.828125 158.78125 -41.578125 158.78125 -41.078125 L 156.28125 -13.53125 C 156.113281 -11.519531 155.863281 -10.265625 155.53125 -9.765625 C 155.195312 -9.265625 154.53125 -8.679688 153.53125 -8.015625 C 144.84375 -3.835938 136.703125 -0.914062 129.109375 0.75 C 121.515625 2.414062 112.789062 3.25 102.9375 3.25 C 85.40625 3.25 69.75 -0.210938 55.96875 -7.140625 C 42.195312 -14.066406 31.46875 -23.789062 23.78125 -36.3125 C 16.101562 -48.832031 12.265625 -63.191406 12.265625 -79.390625 C 12.265625 -95.085938 16.1875 -108.988281 24.03125 -121.09375 C 31.882812 -133.195312 42.695312 -142.585938 56.46875 -149.265625 C 70.25 -155.941406 85.738281 -159.28125 102.9375 -159.28125 Z M 102.9375 -159.28125 "/></g></g></g><g fill="#daa520" fill-opacity="1"><g transform="translate(222.791812, 307.903935)"><g><path d="M 175.0625 -3 C 175.726562 -3 176.0625 -2.5 176.0625 -1.5 C 176.0625 -0.5 175.726562 0 175.0625 0 C 171.894531 0 166.972656 -0.164062 160.296875 -0.5 C 153.609375 -0.832031 148.765625 -1 145.765625 -1 C 142.085938 -1 137.410156 -0.832031 131.734375 -0.5 C 126.390625 -0.164062 122.300781 0 119.46875 0 C 118.800781 0 118.46875 -0.5 118.46875 -1.5 C 118.46875 -2.5 118.800781 -3 119.46875 -3 C 125.644531 -3 130.148438 -3.582031 132.984375 -4.75 C 135.828125 -5.925781 137.25 -7.929688 137.25 -10.765625 C 137.25 -13.109375 136.164062 -16.695312 134 -21.53125 L 111.703125 -68.875 L 52.09375 -68.875 L 36.3125 -31.8125 C 33.976562 -26.132812 32.8125 -21.539062 32.8125 -18.03125 C 32.8125 -12.851562 34.851562 -9.050781 38.9375 -6.625 C 43.03125 -4.207031 49.171875 -3 57.359375 -3 C 58.191406 -3 58.609375 -2.5 58.609375 -1.5 C 58.609375 -0.5 58.191406 0 57.359375 0 C 54.347656 0 50.003906 -0.164062 44.328125 -0.5 C 37.984375 -0.832031 32.472656 -1 27.796875 -1 C 23.453125 -1 18.441406 -0.832031 12.765625 -0.5 C 7.765625 -0.164062 3.59375 0 0.25 0 C -0.582031 0 -1 -0.5 -1 -1.5 C -1 -2.5 -0.582031 -3 0.25 -3 C 4.925781 -3 8.890625 -3.875 12.140625 -5.625 C 15.398438 -7.382812 18.488281 -10.472656 21.40625 -14.890625 C 24.332031 -19.316406 27.550781 -25.707031 31.0625 -34.0625 L 83.90625 -158.78125 C 84.238281 -159.28125 84.820312 -159.53125 85.65625 -159.53125 C 86.488281 -159.53125 86.988281 -159.28125 87.15625 -158.78125 L 146.265625 -34.3125 C 151.941406 -21.957031 156.78125 -13.648438 160.78125 -9.390625 C 164.789062 -5.128906 169.550781 -3 175.0625 -3 Z M 54.09375 -73.890625 L 109.453125 -73.890625 L 80.140625 -135.75 Z M 54.09375 -73.890625 "/></g></g></g><g fill="#daa520" fill-opacity="1"><g transform="translate(398.612163, 307.903935)"><g><path d="M 171.0625 -3 C 171.394531 -3 171.5625 -2.5 171.5625 -1.5 C 171.5625 -0.5 171.394531 0 171.0625 0 L 138.75 0 C 134.570312 0 126.722656 -6.925781 115.203125 -20.78125 C 103.679688 -34.644531 89.992188 -53.679688 74.140625 -77.890625 C 69.628906 -76.890625 64.953125 -76.390625 60.109375 -76.390625 C 59.109375 -76.390625 55.351562 -76.640625 48.84375 -77.140625 L 48.84375 -20.28125 C 48.84375 -15.101562 49.34375 -11.347656 50.34375 -9.015625 C 51.34375 -6.679688 53.300781 -5.09375 56.21875 -4.25 C 59.144531 -3.414062 63.78125 -3 70.125 -3 C 70.625 -3 70.875 -2.5 70.875 -1.5 C 70.875 -0.5 70.625 0 70.125 0 C 64.945312 0 60.859375 -0.0820312 57.859375 -0.25 L 40.578125 -0.5 L 23.546875 -0.25 C 20.535156 -0.0820312 16.273438 0 10.765625 0 C 10.429688 0 10.265625 -0.5 10.265625 -1.5 C 10.265625 -2.5 10.429688 -3 10.765625 -3 C 17.109375 -3 21.78125 -3.414062 24.78125 -4.25 C 27.789062 -5.09375 29.835938 -6.722656 30.921875 -9.140625 C 32.015625 -11.554688 32.5625 -15.269531 32.5625 -20.28125 L 32.5625 -136.25 C 32.5625 -141.257812 32.054688 -144.929688 31.046875 -147.265625 C 30.046875 -149.597656 28.082031 -151.222656 25.15625 -152.140625 C 22.238281 -153.066406 17.609375 -153.53125 11.265625 -153.53125 C 10.765625 -153.53125 10.515625 -154.03125 10.515625 -155.03125 C 10.515625 -156.03125 10.765625 -156.53125 11.265625 -156.53125 L 23.546875 -156.28125 C 30.554688 -155.945312 36.234375 -155.78125 40.578125 -155.78125 C 44.242188 -155.78125 47.660156 -155.863281 50.828125 -156.03125 C 54.003906 -156.195312 56.679688 -156.363281 58.859375 -156.53125 C 65.035156 -157.03125 70.628906 -157.28125 75.640625 -157.28125 C 88.828125 -157.28125 99.007812 -154.273438 106.1875 -148.265625 C 113.375 -142.253906 116.96875 -134.238281 116.96875 -124.21875 C 116.96875 -115.207031 114.335938 -107.066406 109.078125 -99.796875 C 103.816406 -92.535156 96.84375 -86.820312 88.15625 -82.65625 C 102.1875 -62.445312 114 -46.625 123.59375 -35.1875 C 133.195312 -23.75 141.710938 -15.523438 149.140625 -10.515625 C 156.578125 -5.503906 163.882812 -3 171.0625 -3 Z M 48.84375 -83.15625 C 53.007812 -82.488281 57.929688 -82.15625 63.609375 -82.15625 C 76.640625 -82.15625 85.953125 -84.988281 91.546875 -90.65625 C 97.140625 -96.332031 99.9375 -105.101562 99.9375 -116.96875 C 99.9375 -129.988281 97.054688 -139.335938 91.296875 -145.015625 C 85.535156 -150.691406 77.144531 -153.53125 66.125 -153.53125 C 59.613281 -153.53125 55.101562 -152.359375 52.59375 -150.015625 C 50.09375 -147.679688 48.84375 -142.925781 48.84375 -135.75 Z M 48.84375 -83.15625 "/></g></g></g><g fill="#daa520" fill-opacity="1"><g transform="translate(567.169277, 307.903935)"><g><path d="M 91.671875 3 C 76.140625 3 62.320312 -0.628906 50.21875 -7.890625 C 38.113281 -15.148438 28.757812 -25 22.15625 -37.4375 C 15.5625 -49.875 12.265625 -63.441406 12.265625 -78.140625 C 12.265625 -95.335938 16.601562 -110.070312 25.28125 -122.34375 C 33.96875 -134.613281 45.113281 -143.835938 58.71875 -150.015625 C 72.332031 -156.191406 86.238281 -159.28125 100.4375 -159.28125 C 116.289062 -159.28125 130.226562 -155.566406 142.25 -148.140625 C 154.28125 -140.710938 163.507812 -130.90625 169.9375 -118.71875 C 176.363281 -106.53125 179.578125 -93.585938 179.578125 -79.890625 C 179.578125 -64.703125 175.566406 -50.757812 167.546875 -38.0625 C 159.535156 -25.375 148.804688 -15.359375 135.359375 -8.015625 C 121.921875 -0.671875 107.359375 3 91.671875 3 Z M 100.4375 -2.25 C 111.789062 -2.25 122.015625 -5.003906 131.109375 -10.515625 C 140.210938 -16.023438 147.394531 -24.125 152.65625 -34.8125 C 157.914062 -45.5 160.546875 -58.1875 160.546875 -72.875 C 160.546875 -88.570312 157.625 -102.515625 151.78125 -114.703125 C 145.9375 -126.890625 137.710938 -136.40625 127.109375 -143.25 C 116.503906 -150.101562 104.101562 -153.53125 89.90625 -153.53125 C 71.539062 -153.53125 57.179688 -147.601562 46.828125 -135.75 C 36.484375 -123.894531 31.3125 -107.613281 31.3125 -86.90625 C 31.3125 -71.207031 34.234375 -56.890625 40.078125 -43.953125 C 45.921875 -31.015625 54.097656 -20.828125 64.609375 -13.390625 C 75.128906 -5.960938 87.070312 -2.25 100.4375 -2.25 Z M 100.4375 -2.25 "/></g></g></g><g clip-path="url(#e2800e3e88)"><path fill="#daa520" d="M 394.585938 448.007812 C 394.136719 446.832031 396.8125 440.652344 399.816406 435.890625 C 401.28125 433.566406 402.734375 431.261719 403.035156 430.761719 C 403.515625 429.980469 403.273438 429.558594 401.371094 427.875 C 396.46875 423.855469 391.167969 420.453125 385.46875 417.675781 C 379.617188 414.839844 370.136719 411.25 367.28125 410.800781 C 363.792969 410.238281 355.839844 413.625 344.515625 420.511719 C 326.1875 431.652344 319.613281 433.035156 294.703125 431.011719 C 285.335938 430.238281 284.53125 430.097656 284.53125 429.238281 C 284.53125 428.375 293.449219 421.390625 301.898438 415.800781 C 309.625 410.660156 318.023438 407.128906 327.101562 405.199219 L 331.609375 404.285156 L 328.414062 403.964844 C 326.660156 403.785156 319.054688 403.496094 311.527344 403.316406 L 297.820312 402.984375 L 291.167969 408.363281 L 281.789062 415.96875 C 275.894531 420.695312 269.363281 424.242188 262.1875 426.601562 C 260.011719 427.292969 255.101562 428.425781 251.273438 429.136719 C 247.449219 429.847656 242.335938 430.949219 239.890625 431.613281 C 233.109375 433.4375 232.726562 432.863281 237.078125 427.394531 C 241.414062 422.175781 246.234375 417.457031 251.546875 413.234375 C 255.441406 410.449219 259.578125 408.078125 263.949219 406.121094 C 267.898438 404.398438 268.398438 404.425781 251.296875 405.460938 C 236.496094 406.351562 239.03125 405.460938 228.730469 413.375 C 218.578125 421.171875 211.695312 423.804688 200.199219 424.398438 C 194.078125 424.699219 184.238281 423.886719 183.347656 423.015625 C 182.453125 422.144531 183.859375 420.941406 191.042969 416.773438 C 198.617188 412.261719 204.878906 409.125 208.136719 408.125 C 211.394531 407.121094 211.285156 406.621094 207.546875 406.621094 C 196.503906 406.476562 185.816406 404.453125 175.480469 400.558594 C 159.609375 394.246094 150.429688 384.027344 151.632812 374.125 C 153.234375 361.539062 168.496094 357.773438 177.574219 367.722656 C 181.300781 371.789062 182.535156 376.742188 180.722656 380.289062 C 179.578125 382.53125 178.285156 383.035156 178.898438 381.007812 C 181.671875 371.78125 171.253906 362.210938 161.433594 364.964844 C 160.597656 365.222656 159.8125 365.582031 159.070312 366.039062 C 158.328125 366.496094 157.652344 367.042969 157.050781 367.671875 C 156.445312 368.300781 155.929688 368.996094 155.503906 369.753906 C 155.074219 370.515625 154.75 371.316406 154.527344 372.160156 C 151.753906 381.722656 160.25 391.621094 176.84375 398.214844 C 185.742188 401.730469 196.3125 403.464844 211.363281 403.894531 L 221.035156 404.167969 L 216.574219 403.226562 C 202.734375 400.257812 196.113281 395.75 187.59375 383.433594 C 184.257812 378.625 184.96875 378.164062 193.546875 379.636719 C 206.835938 381.902344 215.84375 386.199219 227.746094 395.960938 C 230.296875 398.0625 233.027344 399.898438 235.933594 401.472656 L 239.390625 403.113281 L 253.160156 402.273438 C 260.734375 401.8125 266.925781 401.269531 266.925781 401.039062 C 266.925781 400.808594 266.40625 400.648438 265.773438 400.648438 C 263.609375 400.648438 256.253906 398.546875 251.925781 396.640625 C 248.480469 395.03125 245.171875 393.183594 241.996094 391.089844 C 235.402344 386.660156 223.015625 376.421875 223.015625 375.386719 C 223.015625 374.144531 226.605469 373.785156 236.664062 374.046875 C 250.421875 374.386719 258.519531 376.050781 267.296875 380.296875 C 272.308594 382.753906 275.484375 384.867188 282.800781 390.769531 C 285.9375 393.304688 290.0625 396.402344 291.976562 397.652344 L 295.457031 399.929688 L 311.328125 400.257812 C 320.054688 400.4375 329.433594 400.828125 332.160156 401.109375 C 339.175781 401.863281 339.246094 401.8125 332.902344 399.878906 C 325.65625 397.597656 318.835938 394.40625 312.441406 390.308594 C 307.78125 387.082031 304.421875 383.863281 298.589844 376.859375 C 295.957031 373.722656 292.578125 369.9375 291.027344 368.445312 C 288.121094 365.589844 287.800781 364.9375 288.953125 364.035156 C 290.324219 362.890625 309.746094 366.519531 319.394531 369.726562 C 333.3125 374.335938 339.175781 378.554688 355.367188 395.628906 C 360.707031 401.25 368.925781 407.652344 372.511719 408.9375 C 386.910156 414.136719 395.699219 418.796875 402.964844 425.160156 L 405.800781 427.625 L 408.414062 425.257812 C 414.347656 419.929688 425.710938 413.664062 436.34375 409.878906 C 443.558594 407.3125 449.257812 402.863281 460.089844 391.582031 C 464.066406 387.320312 468.28125 383.3125 472.738281 379.554688 C 482.667969 372.089844 494.953125 367.640625 513.820312 364.695312 C 521.585938 363.472656 523.441406 363.554688 523.441406 365.097656 C 523.441406 365.4375 521.855469 367.269531 519.921875 369.175781 C 517.988281 371.078125 514.5625 374.867188 512.308594 377.59375 C 502.125 389.90625 493.917969 395.148438 476.554688 400.460938 L 472.546875 401.671875 L 475.773438 401.410156 C 487.738281 400.410156 493.738281 400.167969 503.828125 400.167969 L 515.261719 400.167969 L 518.410156 398.304688 C 520.144531 397.300781 524.601562 394.015625 528.320312 391.050781 C 536.878906 384.226562 538.441406 383.164062 543.691406 380.570312 C 552.539062 376.191406 560.503906 374.457031 573.753906 374.023438 C 584.445312 373.675781 588.371094 374.023438 588.371094 375.335938 C 588.371094 376.410156 576.347656 386.480469 569.863281 390.847656 C 562.128906 396.039062 553.832031 399.539062 546.816406 400.507812 C 545.65625 400.667969 544.714844 400.949219 544.714844 401.128906 C 544.714844 401.3125 550.894531 401.84375 558.453125 402.292969 L 572.1875 403.113281 L 575.6875 401.429688 C 578.433594 399.949219 581.003906 398.207031 583.402344 396.210938 C 594.90625 386.5625 605.035156 381.75 618.382812 379.566406 C 623.933594 378.664062 625.527344 378.644531 625.859375 379.507812 C 626.28125 380.609375 619.714844 389.527344 615.839844 393.195312 C 610.265625 398.40625 603.273438 401.632812 593.792969 403.355469 L 590.085938 404.027344 L 594.292969 404.078125 C 606.597656 404.214844 622.472656 402.261719 630.527344 399.628906 C 639.828125 396.570312 647.183594 392.363281 651.921875 387.402344 C 655.75 383.394531 656.933594 380.929688 657.183594 376.378906 C 657.375 373.011719 657.261719 372.371094 655.96875 369.945312 C 652.734375 363.804688 644.648438 362.683594 637.753906 367.421875 C 636.339844 368.347656 635.164062 369.519531 634.234375 370.929688 C 633.300781 372.34375 632.6875 373.882812 632.390625 375.546875 C 631.921875 377.78125 631.929688 378.714844 632.441406 380.136719 C 633.285156 382.453125 632.722656 382.941406 631.210938 381.191406 C 628.453125 377.984375 630.558594 370.007812 635.21875 366.21875 C 643.113281 359.734375 653.546875 360.929688 658.226562 368.824219 C 659.449219 370.910156 659.585938 371.609375 659.585938 375.839844 C 659.585938 381.121094 658.988281 382.710938 655.21875 387.664062 C 649.605469 395.019531 636.46875 401.773438 622.3125 404.597656 C 616.359375 405.804688 610.347656 406.472656 604.273438 406.601562 C 600.265625 406.601562 600.195312 406.960938 604.003906 408.335938 C 610.097656 410.519531 628.203125 420.71875 628.496094 422.152344 C 628.527344 422.367188 628.492188 422.566406 628.382812 422.753906 C 628.277344 422.941406 628.125 423.074219 627.921875 423.15625 C 625.917969 423.9375 616.339844 424.597656 610.988281 424.335938 C 599.304688 423.765625 592.511719 420.960938 580.777344 411.863281 C 576.707031 408.714844 572.921875 406.128906 572.339844 406.128906 C 571.757812 406.128906 565.945312 405.789062 559.394531 405.390625 C 542.960938 404.386719 543.679688 404.277344 549.183594 406.902344 C 552.257812 408.417969 555.238281 410.105469 558.121094 411.960938 C 562.78125 415.070312 571.519531 423.4375 575.246094 428.375 C 577.25 431.0625 577.519531 431.621094 576.9375 432.214844 C 576.359375 432.804688 575.9375 432.785156 573.773438 432.144531 C 572.410156 431.734375 566.839844 430.5 561.378906 429.398438 C 542.058594 425.519531 538.742188 423.738281 517.066406 405.691406 L 513.851562 403.003906 L 500.164062 403.335938 C 492.628906 403.515625 485.03125 403.804688 483.269531 403.984375 L 480.070312 404.308594 L 484.722656 405.25 C 493.886719 407.207031 502.335938 410.835938 510.0625 416.140625 C 516.726562 420.640625 526.566406 427.925781 526.996094 428.675781 C 527.09375 428.867188 527.121094 429.066406 527.074219 429.277344 C 527.027344 429.488281 526.917969 429.65625 526.746094 429.789062 C 526.023438 430.351562 506.175781 431.933594 500.023438 431.914062 C 489.429688 431.914062 480.644531 428.808594 466.355469 420.128906 C 456.964844 414.417969 448.445312 410.570312 445.21875 410.570312 C 443.296875 410.570312 432.65625 414.507812 426.421875 417.515625 C 419.40625 420.890625 414.046875 424.328125 410.390625 427.722656 L 407.792969 430.167969 L 410.097656 433.394531 C 413.003906 437.40625 416.742188 445.289062 416.742188 447.316406 C 416.742188 450.25 415.160156 448.808594 412.285156 443.304688 C 409.136719 437.292969 406.421875 432.933594 405.769531 432.933594 C 405.117188 432.933594 401.011719 439.457031 399.148438 443.535156 C 396.960938 448.335938 395.320312 449.949219 394.585938 448.035156 Z M 239.390625 429.4375 C 240.101562 429.167969 244.519531 428.164062 249.222656 427.164062 C 263.570312 424.21875 268.710938 422.242188 276.675781 416.632812 C 281.515625 413.234375 292.320312 404.539062 292.046875 404.265625 C 291.566406 403.785156 281.027344 408.203125 269.734375 413.597656 C 262.949219 416.84375 257.316406 419.488281 257.207031 419.488281 C 254.613281 419.488281 271.867188 409.988281 283.050781 405.257812 L 287.058594 403.574219 L 281.847656 403.804688 C 270.023438 404.316406 256.855469 410.46875 246.695312 420.21875 C 242.597656 424.148438 237.347656 429.910156 237.859375 429.910156 C 238.398438 429.792969 238.921875 429.628906 239.429688 429.417969 Z M 572.960938 428.847656 C 571.070312 426.511719 569.039062 424.308594 566.867188 422.234375 C 555.554688 410.890625 542.617188 404.445312 529.851562 403.777344 C 526.988281 403.625 524.761719 403.625 524.894531 403.777344 C 526.261719 404.472656 527.667969 405.082031 529.113281 405.609375 C 536.796875 408.617188 555.234375 418.636719 554.503906 419.335938 C 554.375 419.46875 548.941406 417.011719 542.480469 413.886719 C 532.046875 408.875 523.882812 405.449219 519.972656 404.40625 C 518.789062 404.097656 518.800781 404.125 520.222656 405.21875 C 521.035156 405.851562 523.230469 407.644531 525.183594 409.226562 C 539.421875 420.941406 545.035156 423.675781 561.859375 427.164062 C 566.488281 428.164062 570.875 429.167969 571.527344 429.398438 C 573.382812 430.160156 573.601562 430.078125 572.960938 428.875 Z M 319.503906 428.667969 C 327.148438 427.214844 331.890625 425.160156 344.316406 417.863281 C 348.542969 415.390625 354.234375 412.402344 356.96875 411.242188 L 361.949219 409.125 L 359.214844 409.378906 C 348.984375 410.378906 339.574219 412.503906 325.867188 417.023438 C 320.90625 418.667969 316.769531 420.027344 316.679688 420.027344 C 315.90625 420.027344 317.679688 418.757812 320.09375 417.515625 C 326.015625 414.507812 347.550781 408.125 351.679688 408.125 C 352.171875 408.160156 352.605469 408.015625 352.984375 407.695312 C 353.363281 407.074219 350.078125 406.691406 341.859375 406.320312 C 334.425781 405.792969 327.203125 406.796875 320.195312 409.328125 C 311.417969 412.261719 305.457031 415.609375 294.34375 423.835938 L 288.261719 428.347656 L 292.359375 428.644531 L 298.691406 429.097656 C 305.707031 429.578125 315.777344 429.367188 319.523438 428.65625 Z M 520.644531 428.527344 L 523.089844 428.195312 L 516.316406 423.183594 C 507.859375 416.984375 502.378906 413.65625 496.765625 411.300781 C 486.746094 407.101562 479.210938 405.738281 468.839844 406.289062 C 461.582031 406.660156 457.234375 407.242188 458.417969 407.671875 C 458.828125 407.824219 461.722656 408.445312 464.871094 409.035156 C 474.582031 410.890625 496.195312 418.566406 495.011719 419.75 C 492.097656 419.058594 489.234375 418.210938 486.414062 417.203125 C 472.003906 412.484375 461.996094 410.1875 452.714844 409.398438 C 450.320312 409.195312 449.980469 409.246094 450.972656 409.679688 C 456.726562 412.167969 462.308594 414.988281 467.726562 418.144531 C 478.289062 424.417969 485.761719 427.605469 492.835938 428.90625 C 495.484375 429.386719 516.394531 429.078125 520.644531 428.496094 Z M 204.929688 421.773438 C 209.976562 421.03125 214.769531 419.488281 219.300781 417.144531 C 221.304688 416.011719 229.722656 410.128906 230.953125 408.988281 C 231.695312 408.304688 219.007812 412.785156 211.515625 415.839844 C 204.019531 418.898438 201.945312 419.277344 205.632812 416.933594 C 209.320312 414.585938 219.351562 410.371094 225.824219 408.386719 L 231.425781 406.660156 L 228.699219 406.660156 C 223.417969 406.777344 218.207031 407.445312 213.066406 408.664062 C 208.4375 409.828125 201.203125 413.183594 192.535156 418.144531 L 186.324219 421.710938 L 188.546875 422.011719 C 194.019531 422.558594 199.480469 422.46875 204.929688 421.742188 Z M 622.78125 422.074219 L 625.199219 421.742188 L 617.582031 417.421875 C 608.433594 412.242188 604.625 410.480469 599.183594 408.90625 C 593.71875 407.527344 588.167969 406.773438 582.53125 406.640625 C 580.296875 406.640625 580.4375 406.730469 585.394531 408.296875 C 588.261719 409.195312 592.410156 410.648438 594.574219 411.53125 C 600.027344 413.734375 608.554688 418.234375 607.601562 418.414062 C 607.191406 418.496094 603.964844 417.414062 600.457031 416 C 593.28125 413.125 581.359375 408.988281 581.078125 409.257812 C 580.796875 409.527344 591.238281 416.742188 593.5625 417.894531 C 597.5 419.898438 602.332031 421.210938 608.695312 422.164062 C 613.371094 422.464844 618.046875 422.4375 622.722656 422.074219 Z M 226.746094 401.953125 C 218.027344 398.886719 205.410156 392.554688 205.410156 391.25 C 205.410156 390.988281 207.367188 391.691406 209.75 392.792969 C 216.0625 395.699219 225.453125 399.628906 228.667969 400.691406 C 231.042969 401.480469 231.285156 401.492188 230.292969 400.800781 C 229.660156 400.359375 227.097656 398.335938 224.589844 396.3125 C 220.746094 393.089844 216.585938 390.34375 212.113281 388.070312 C 207.644531 385.796875 202.972656 384.054688 198.105469 382.84375 C 193.488281 381.671875 189.039062 381.039062 189.039062 381.558594 C 189.671875 382.800781 190.414062 383.972656 191.261719 385.078125 C 198.378906 395.097656 206.785156 399.628906 222.585938 402.113281 C 230.230469 403.324219 230.601562 403.316406 226.746094 401.960938 Z M 582.800781 402.84375 C 582.484375 402.671875 582.167969 402.671875 581.847656 402.84375 C 581.457031 402.996094 581.578125 403.113281 582.148438 403.144531 C 582.722656 403.175781 582.972656 403.042969 582.800781 402.882812 Z M 353.484375 401.960938 C 352.941406 401.582031 347.371094 398.386719 341.089844 394.859375 C 325.578125 386.128906 318.042969 381.640625 318.042969 381.140625 C 318.042969 380.277344 320.90625 381.449219 326.96875 384.765625 C 330.386719 386.640625 336.820312 390.085938 341.277344 392.441406 C 345.738281 394.796875 351.46875 398.023438 354.023438 399.628906 L 358.664062 402.542969 L 348.925781 392.761719 C 336.597656 380.488281 332.199219 377.410156 320.867188 373.183594 C 313.957031 370.75 306.886719 368.921875 299.664062 367.691406 C 297.078125 367.261719 294.421875 366.789062 293.78125 366.691406 C 292.871094 366.480469 293.421875 367.320312 296.335938 370.539062 C 298.339844 372.800781 301.496094 376.328125 303.242188 378.375 C 309.355469 385.546875 317.871094 391.242188 328.792969 395.457031 C 332.5 396.890625 352.28125 402.542969 353.972656 402.652344 C 354.246094 402.652344 353.972656 402.371094 353.484375 402.003906 Z M 467.597656 399.957031 C 489.351562 394.246094 499.511719 388.746094 508.890625 377.601562 C 510.964844 375.136719 514.121094 371.589844 515.90625 369.746094 C 518.589844 366.972656 518.910156 366.417969 517.910156 366.628906 C 517.226562 366.78125 513.992188 367.363281 510.714844 367.933594 C 495.222656 370.609375 482.957031 375.308594 474.300781 381.882812 C 472.246094 383.445312 466.664062 388.65625 461.894531 393.476562 L 453.207031 402.234375 L 458.417969 399.054688 C 461.285156 397.300781 468.207031 393.445312 473.796875 390.480469 L 487.9375 382.964844 C 491.675781 380.960938 494.058594 380.238281 493.410156 381.289062 C 493.027344 381.902344 484.28125 387.0625 469.832031 395.1875 C 458.507812 401.550781 456.050781 403.113281 458.148438 402.464844 C 458.699219 402.304688 462.9375 401.179688 467.574219 399.957031 Z M 591.199219 401.640625 C 601.699219 399.859375 608.785156 396.800781 614.464844 391.621094 C 618.472656 387.945312 623.082031 381.660156 621.929688 381.421875 C 620.777344 381.179688 612.914062 382.78125 608.273438 384.296875 C 600.265625 387.027344 593.035156 391.128906 586.578125 396.601562 C 584.984375 397.925781 582.789062 399.605469 581.707031 400.339844 C 580.625 401.070312 579.875 401.671875 580.054688 401.671875 C 581.289062 401.671875 597.03125 395.148438 602.640625 392.324219 C 606.027344 390.609375 606.257812 390.539062 606.257812 391.230469 C 606.257812 392.324219 592.953125 399.085938 585.667969 401.703125 C 582.339844 402.894531 584.023438 402.882812 591.199219 401.703125 Z M 283.570312 398.214844 C 280.84375 397.210938 276.71875 395.480469 274.390625 394.464844 C 272.066406 393.453125 265.644531 390.757812 260.113281 388.453125 C 248.578125 383.675781 244.082031 381.53125 244.082031 380.757812 C 244.082031 380.457031 244.359375 380.328125 244.703125 380.476562 L 254.25 384.207031 C 259.160156 386.109375 268.652344 389.9375 275.292969 392.722656 C 281.9375 395.507812 288.011719 397.972656 288.691406 398.214844 L 289.933594 398.65625 L 288.800781 397.804688 C 288.121094 397.324219 285.664062 395.5 283.351562 393.734375 C 281.035156 391.972656 277.617188 389.375 275.765625 387.984375 C 270.832031 384.402344 265.492188 381.597656 259.742188 379.566406 C 252.578125 377.160156 247.117188 376.351562 236.042969 376.058594 C 230.382812 375.890625 225.753906 375.859375 225.753906 376 C 225.753906 376.441406 236.777344 385.015625 240.925781 387.914062 C 247.117188 392.121094 250.855469 394.054688 256.503906 395.929688 C 263.679688 398.304688 274.972656 399.9375 285.777344 400.109375 L 288.5 400.109375 L 283.539062 398.203125 Z M 533.078125 399.648438 C 550.644531 398.34375 559.261719 395.640625 570.535156 387.875 C 574.484375 385.148438 583.921875 377.851562 585.667969 376.21875 C 585.976562 375.917969 582.371094 375.847656 575.746094 376.027344 C 555.785156 376.570312 546.136719 379.898438 531.285156 391.390625 C 527.339844 394.445312 523.558594 397.34375 522.890625 397.832031 C 522.21875 398.324219 521.886719 398.625 522.167969 398.503906 C 525.171875 397.152344 547.808594 387.902344 553.914062 385.527344 C 558.28125 383.824219 563.019531 381.960938 564.433594 381.390625 C 567.769531 380.046875 568.363281 380.890625 565.207031 382.492188 C 562.832031 383.695312 545.464844 391.03125 530.84375 397.011719 C 522.367188 400.488281 522.328125 400.4375 533.078125 399.648438 Z M 533.078125 399.648438 " fill-opacity="1" fill-rule="nonzero"/></g><g fill="#daa520" fill-opacity="1"><g transform="translate(0.0000035, 655.652011)"><g><path d="M 36.3125 -127.234375 C 36.3125 -120.722656 37.894531 -115.046875 41.0625 -110.203125 C 44.238281 -105.359375 48.125 -101.304688 52.71875 -98.046875 C 57.3125 -94.796875 63.613281 -90.75 71.625 -85.90625 C 80.476562 -80.5625 87.28125 -76.132812 92.03125 -72.625 C 96.789062 -69.125 100.882812 -64.660156 104.3125 -59.234375 C 107.738281 -53.804688 109.453125 -47.335938 109.453125 -39.828125 C 109.453125 -31.804688 107.445312 -24.539062 103.4375 -18.03125 C 99.425781 -11.519531 93.539062 -6.382812 85.78125 -2.625 C 78.019531 1.125 68.710938 3 57.859375 3 C 44.992188 3 33.222656 0.078125 22.546875 -5.765625 C 21.703125 -6.265625 21.15625 -6.847656 20.90625 -7.515625 C 20.65625 -8.179688 20.445312 -9.179688 20.28125 -10.515625 L 17.03125 -44.578125 C 16.863281 -45.242188 17.238281 -45.660156 18.15625 -45.828125 C 19.070312 -45.992188 19.613281 -45.742188 19.78125 -45.078125 C 22.457031 -33.054688 27.425781 -22.703125 34.6875 -14.015625 C 41.945312 -5.335938 51.585938 -1 63.609375 -1 C 71.960938 -1 79.019531 -3.296875 84.78125 -7.890625 C 90.539062 -12.484375 93.421875 -19.785156 93.421875 -29.796875 C 93.421875 -37.316406 91.75 -43.832031 88.40625 -49.34375 C 85.070312 -54.851562 81.023438 -59.398438 76.265625 -62.984375 C 71.503906 -66.578125 65.035156 -70.796875 56.859375 -75.640625 C 48.835938 -80.484375 42.53125 -84.65625 37.9375 -88.15625 C 33.351562 -91.664062 29.472656 -96.09375 26.296875 -101.4375 C 23.117188 -106.78125 21.53125 -113.039062 21.53125 -120.21875 C 21.53125 -128.5625 23.742188 -135.695312 28.171875 -141.625 C 32.597656 -147.550781 38.359375 -151.972656 45.453125 -154.890625 C 52.546875 -157.816406 60.101562 -159.28125 68.125 -159.28125 C 77.976562 -159.28125 87.742188 -157.28125 97.421875 -153.28125 C 99.929688 -152.445312 101.1875 -151.023438 101.1875 -149.015625 L 102.9375 -120.21875 C 102.9375 -119.550781 102.519531 -119.21875 101.6875 -119.21875 C 100.851562 -119.21875 100.351562 -119.550781 100.1875 -120.21875 C 98.84375 -128.894531 95.25 -136.945312 89.40625 -144.375 C 83.5625 -151.8125 75.128906 -155.53125 64.109375 -155.53125 C 54.765625 -155.53125 47.796875 -152.816406 43.203125 -147.390625 C 38.609375 -141.960938 36.3125 -135.242188 36.3125 -127.234375 Z M 36.3125 -127.234375 "/></g></g></g><g fill="#daa520" fill-opacity="1"><g transform="translate(122.974053, 655.652011)"><g><path d="M 180.828125 -3 C 181.328125 -3 181.578125 -2.5 181.578125 -1.5 C 181.578125 -0.5 181.328125 0 180.828125 0 C 175.648438 0 171.5625 -0.0820312 168.5625 -0.25 L 151.28125 -0.5 L 132.734375 -0.25 C 129.898438 -0.0820312 125.976562 0 120.96875 0 C 120.46875 0 120.21875 -0.5 120.21875 -1.5 C 120.21875 -2.5 120.46875 -3 120.96875 -3 C 127.476562 -3 132.234375 -3.414062 135.234375 -4.25 C 138.242188 -5.09375 140.289062 -6.722656 141.375 -9.140625 C 142.46875 -11.554688 143.015625 -15.269531 143.015625 -20.28125 L 143.015625 -78.890625 L 46.828125 -78.890625 L 46.828125 -20.28125 C 46.828125 -15.269531 47.367188 -11.554688 48.453125 -9.140625 C 49.546875 -6.722656 51.59375 -5.09375 54.59375 -4.25 C 57.601562 -3.414062 62.363281 -3 68.875 -3 C 69.207031 -3 69.375 -2.5 69.375 -1.5 C 69.375 -0.5 69.207031 0 68.875 0 C 63.695312 0 59.609375 -0.0820312 56.609375 -0.25 L 38.5625 -0.5 L 21.28125 -0.25 C 18.28125 -0.0820312 14.109375 0 8.765625 0 C 8.429688 0 8.265625 -0.5 8.265625 -1.5 C 8.265625 -2.5 8.429688 -3 8.765625 -3 C 15.109375 -3 19.820312 -3.414062 22.90625 -4.25 C 26 -5.09375 28.085938 -6.722656 29.171875 -9.140625 C 30.265625 -11.554688 30.8125 -15.269531 30.8125 -20.28125 L 30.8125 -136.25 C 30.8125 -141.257812 30.265625 -144.929688 29.171875 -147.265625 C 28.085938 -149.597656 26.039062 -151.222656 23.03125 -152.140625 C 20.03125 -153.066406 15.359375 -153.53125 9.015625 -153.53125 C 8.679688 -153.53125 8.515625 -154.03125 8.515625 -155.03125 C 8.515625 -156.03125 8.679688 -156.53125 9.015625 -156.53125 L 21.796875 -156.28125 C 28.804688 -155.945312 34.394531 -155.78125 38.5625 -155.78125 C 43.40625 -155.78125 49.503906 -155.945312 56.859375 -156.28125 L 68.875 -156.53125 C 69.207031 -156.53125 69.375 -156.03125 69.375 -155.03125 C 69.375 -154.03125 69.207031 -153.53125 68.875 -153.53125 C 62.53125 -153.53125 57.8125 -153.023438 54.71875 -152.015625 C 51.632812 -151.015625 49.546875 -149.304688 48.453125 -146.890625 C 47.367188 -144.472656 46.828125 -140.757812 46.828125 -135.75 L 46.828125 -84.15625 L 143.015625 -84.15625 L 143.015625 -135.75 C 143.015625 -140.757812 142.46875 -144.472656 141.375 -146.890625 C 140.289062 -149.304688 138.242188 -151.015625 135.234375 -152.015625 C 132.234375 -153.023438 127.476562 -153.53125 120.96875 -153.53125 C 120.46875 -153.53125 120.21875 -154.03125 120.21875 -155.03125 C 120.21875 -156.03125 120.46875 -156.53125 120.96875 -156.53125 L 132.734375 -156.28125 C 140.085938 -155.945312 146.269531 -155.78125 151.28125 -155.78125 C 155.78125 -155.78125 161.539062 -155.945312 168.5625 -156.28125 L 180.828125 -156.53125 C 181.328125 -156.53125 181.578125 -156.03125 181.578125 -155.03125 C 181.578125 -154.03125 181.328125 -153.53125 180.828125 -153.53125 C 174.484375 -153.53125 169.804688 -153.066406 166.796875 -152.140625 C 163.796875 -151.222656 161.75 -149.597656 160.65625 -147.265625 C 159.570312 -144.929688 159.03125 -141.257812 159.03125 -136.25 L 159.03125 -20.28125 C 159.03125 -15.269531 159.570312 -11.554688 160.65625 -9.140625 C 161.75 -6.722656 163.796875 -5.09375 166.796875 -4.25 C 169.804688 -3.414062 174.484375 -3 180.828125 -3 Z M 180.828125 -3 "/></g></g></g><g fill="#daa520" fill-opacity="1"><g transform="translate(313.070424, 655.652011)"><g><path d="M 175.0625 -3 C 175.726562 -3 176.0625 -2.5 176.0625 -1.5 C 176.0625 -0.5 175.726562 0 175.0625 0 C 171.894531 0 166.972656 -0.164062 160.296875 -0.5 C 153.609375 -0.832031 148.765625 -1 145.765625 -1 C 142.085938 -1 137.410156 -0.832031 131.734375 -0.5 C 126.390625 -0.164062 122.300781 0 119.46875 0 C 118.800781 0 118.46875 -0.5 118.46875 -1.5 C 118.46875 -2.5 118.800781 -3 119.46875 -3 C 125.644531 -3 130.148438 -3.582031 132.984375 -4.75 C 135.828125 -5.925781 137.25 -7.929688 137.25 -10.765625 C 137.25 -13.109375 136.164062 -16.695312 134 -21.53125 L 111.703125 -68.875 L 52.09375 -68.875 L 36.3125 -31.8125 C 33.976562 -26.132812 32.8125 -21.539062 32.8125 -18.03125 C 32.8125 -12.851562 34.851562 -9.050781 38.9375 -6.625 C 43.03125 -4.207031 49.171875 -3 57.359375 -3 C 58.191406 -3 58.609375 -2.5 58.609375 -1.5 C 58.609375 -0.5 58.191406 0 57.359375 0 C 54.347656 0 50.003906 -0.164062 44.328125 -0.5 C 37.984375 -0.832031 32.472656 -1 27.796875 -1 C 23.453125 -1 18.441406 -0.832031 12.765625 -0.5 C 7.765625 -0.164062 3.59375 0 0.25 0 C -0.582031 0 -1 -0.5 -1 -1.5 C -1 -2.5 -0.582031 -3 0.25 -3 C 4.925781 -3 8.890625 -3.875 12.140625 -5.625 C 15.398438 -7.382812 18.488281 -10.472656 21.40625 -14.890625 C 24.332031 -19.316406 27.550781 -25.707031 31.0625 -34.0625 L 83.90625 -158.78125 C 84.238281 -159.28125 84.820312 -159.53125 85.65625 -159.53125 C 86.488281 -159.53125 86.988281 -159.28125 87.15625 -158.78125 L 146.265625 -34.3125 C 151.941406 -21.957031 156.78125 -13.648438 160.78125 -9.390625 C 164.789062 -5.128906 169.550781 -3 175.0625 -3 Z M 54.09375 -73.890625 L 109.453125 -73.890625 L 80.140625 -135.75 Z M 54.09375 -73.890625 "/></g></g></g><g fill="#daa520" fill-opacity="1"><g transform="translate(488.890775, 655.652011)"><g><path d="M 171.0625 -3 C 171.394531 -3 171.5625 -2.5 171.5625 -1.5 C 171.5625 -0.5 171.394531 0 171.0625 0 L 138.75 0 C 134.570312 0 126.722656 -6.925781 115.203125 -20.78125 C 103.679688 -34.644531 89.992188 -53.679688 74.140625 -77.890625 C 69.628906 -76.890625 64.953125 -76.390625 60.109375 -76.390625 C 59.109375 -76.390625 55.351562 -76.640625 48.84375 -77.140625 L 48.84375 -20.28125 C 48.84375 -15.101562 49.34375 -11.347656 50.34375 -9.015625 C 51.34375 -6.679688 53.300781 -5.09375 56.21875 -4.25 C 59.144531 -3.414062 63.78125 -3 70.125 -3 C 70.625 -3 70.875 -2.5 70.875 -1.5 C 70.875 -0.5 70.625 0 70.125 0 C 64.945312 0 60.859375 -0.0820312 57.859375 -0.25 L 40.578125 -0.5 L 23.546875 -0.25 C 20.535156 -0.0820312 16.273438 0 10.765625 0 C 10.429688 0 10.265625 -0.5 10.265625 -1.5 C 10.265625 -2.5 10.429688 -3 10.765625 -3 C 17.109375 -3 21.78125 -3.414062 24.78125 -4.25 C 27.789062 -5.09375 29.835938 -6.722656 30.921875 -9.140625 C 32.015625 -11.554688 32.5625 -15.269531 32.5625 -20.28125 L 32.5625 -136.25 C 32.5625 -141.257812 32.054688 -144.929688 31.046875 -147.265625 C 30.046875 -149.597656 28.082031 -151.222656 25.15625 -152.140625 C 22.238281 -153.066406 17.609375 -153.53125 11.265625 -153.53125 C 10.765625 -153.53125 10.515625 -154.03125 10.515625 -155.03125 C 10.515625 -156.03125 10.765625 -156.53125 11.265625 -156.53125 L 23.546875 -156.28125 C 30.554688 -155.945312 36.234375 -155.78125 40.578125 -155.78125 C 44.242188 -155.78125 47.660156 -155.863281 50.828125 -156.03125 C 54.003906 -156.195312 56.679688 -156.363281 58.859375 -156.53125 C 65.035156 -157.03125 70.628906 -157.28125 75.640625 -157.28125 C 88.828125 -157.28125 99.007812 -154.273438 106.1875 -148.265625 C 113.375 -142.253906 116.96875 -134.238281 116.96875 -124.21875 C 116.96875 -115.207031 114.335938 -107.066406 109.078125 -99.796875 C 103.816406 -92.535156 96.84375 -86.820312 88.15625 -82.65625 C 102.1875 -62.445312 114 -46.625 123.59375 -35.1875 C 133.195312 -23.75 141.710938 -15.523438 149.140625 -10.515625 C 156.578125 -5.503906 163.882812 -3 171.0625 -3 Z M 48.84375 -83.15625 C 53.007812 -82.488281 57.929688 -82.15625 63.609375 -82.15625 C 76.640625 -82.15625 85.953125 -84.988281 91.546875 -90.65625 C 97.140625 -96.332031 99.9375 -105.101562 99.9375 -116.96875 C 99.9375 -129.988281 97.054688 -139.335938 91.296875 -145.015625 C 85.535156 -150.691406 77.144531 -153.53125 66.125 -153.53125 C 59.613281 -153.53125 55.101562 -152.359375 52.59375 -150.015625 C 50.09375 -147.679688 48.84375 -142.925781 48.84375 -135.75 Z M 48.84375 -83.15625 "/></g></g></g><g fill="#daa520" fill-opacity="1"><g transform="translate(657.447889, 655.652011)"><g><path d="M 153.78125 -156.53125 C 154.113281 -156.53125 154.28125 -156.03125 154.28125 -155.03125 C 154.28125 -154.03125 154.113281 -153.53125 153.78125 -153.53125 C 147.769531 -153.53125 141.675781 -151.316406 135.5 -146.890625 C 129.320312 -142.460938 123.8125 -136.410156 118.96875 -128.734375 L 85.40625 -77.140625 L 85.40625 -20.28125 C 85.40625 -15.101562 85.90625 -11.347656 86.90625 -9.015625 C 87.90625 -6.679688 89.863281 -5.09375 92.78125 -4.25 C 95.707031 -3.414062 100.34375 -3 106.6875 -3 C 107.1875 -3 107.4375 -2.5 107.4375 -1.5 C 107.4375 -0.5 107.1875 0 106.6875 0 C 101.507812 0 97.503906 -0.0820312 94.671875 -0.25 L 77.140625 -0.5 L 59.859375 -0.25 C 56.847656 -0.0820312 52.757812 0 47.59375 0 C 47.082031 0 46.828125 -0.5 46.828125 -1.5 C 46.828125 -2.5 47.082031 -3 47.59375 -3 C 53.9375 -3 58.566406 -3.414062 61.484375 -4.25 C 64.410156 -5.09375 66.414062 -6.722656 67.5 -9.140625 C 68.582031 -11.554688 69.125 -15.269531 69.125 -20.28125 L 69.125 -73.125 L 27.546875 -134 C 22.867188 -141.34375 18.441406 -146.429688 14.265625 -149.265625 C 10.097656 -152.109375 5.257812 -153.53125 -0.25 -153.53125 C -0.75 -153.53125 -1 -154.03125 -1 -155.03125 C -1 -156.03125 -0.75 -156.53125 -0.25 -156.53125 C 1.75 -156.53125 4.753906 -156.363281 8.765625 -156.03125 L 17.53125 -155.78125 C 23.207031 -155.78125 30.390625 -155.945312 39.078125 -156.28125 L 52.59375 -156.53125 C 52.925781 -156.53125 53.09375 -156.03125 53.09375 -155.03125 C 53.09375 -154.03125 52.925781 -153.53125 52.59375 -153.53125 C 43.914062 -153.53125 39.578125 -151.773438 39.578125 -148.265625 C 39.578125 -146.429688 40.410156 -144.34375 42.078125 -142 L 82.40625 -82.90625 L 112.953125 -129.734375 C 116.628906 -135.578125 118.46875 -140.503906 118.46875 -144.515625 C 118.46875 -150.523438 113.957031 -153.53125 104.9375 -153.53125 C 104.601562 -153.53125 104.4375 -154.03125 104.4375 -155.03125 C 104.4375 -156.03125 104.601562 -156.53125 104.9375 -156.53125 L 116.71875 -156.28125 C 123.0625 -155.945312 128.90625 -155.78125 134.25 -155.78125 C 137.082031 -155.78125 140.503906 -155.945312 144.515625 -156.28125 Z M 153.78125 -156.53125 "/></g></g></g><g fill="#daa520" fill-opacity="1"><g transform="translate(376.369732, 406.186617)"><g><path d="M 57.25 -0.984375 C 57.46875 -0.929688 57.5625 -0.753906 57.53125 -0.453125 C 57.507812 -0.148438 57.414062 0 57.25 0 L 48.375 0 C 45.914062 0 42.164062 -1.941406 37.125 -5.828125 C 32.6875 -1.285156 27.15625 0.984375 20.53125 0.984375 C 17.132812 0.984375 14.300781 0.410156 12.03125 -0.734375 C 9.757812 -1.890625 8.0625 -3.394531 6.9375 -5.25 C 5.8125 -7.113281 5.25 -9.113281 5.25 -11.25 C 5.25 -14.375 6.222656 -17.097656 8.171875 -19.421875 C 10.117188 -21.753906 12.925781 -24.257812 16.59375 -26.9375 C 15.601562 -28.414062 14.804688 -29.785156 14.203125 -31.046875 C 12.617188 -34.554688 11.828125 -37.539062 11.828125 -40 C 11.828125 -42.351562 12.398438 -44.53125 13.546875 -46.53125 C 14.703125 -48.53125 16.316406 -50.117188 18.390625 -51.296875 C 20.472656 -52.472656 22.832031 -53.0625 25.46875 -53.0625 C 28.09375 -53.0625 30.347656 -52.429688 32.234375 -51.171875 C 34.128906 -49.910156 35.078125 -47.832031 35.078125 -44.9375 C 35.078125 -42.800781 34.539062 -40.882812 33.46875 -39.1875 C 32.40625 -37.488281 31.09375 -35.992188 29.53125 -34.703125 C 27.96875 -33.421875 25.875 -31.898438 23.25 -30.140625 C 22.863281 -29.921875 22.285156 -29.539062 21.515625 -29 C 25.296875 -22.914062 31.128906 -16.804688 39.015625 -10.671875 C 40.929688 -14.015625 41.890625 -17.710938 41.890625 -21.765625 C 41.890625 -23.734375 41.492188 -25.210938 40.703125 -26.203125 C 39.910156 -27.191406 38.363281 -27.6875 36.0625 -27.6875 C 35.894531 -27.6875 35.796875 -27.847656 35.765625 -28.171875 C 35.742188 -28.503906 35.84375 -28.671875 36.0625 -28.671875 L 53.234375 -28.75 C 53.453125 -28.75 53.5625 -28.582031 53.5625 -28.25 C 53.5625 -27.925781 53.453125 -27.765625 53.234375 -27.765625 C 51.367188 -27.765625 49.96875 -27.585938 49.03125 -27.234375 C 48.101562 -26.878906 47.445312 -26.398438 47.0625 -25.796875 C 46.675781 -25.191406 46.296875 -24.234375 45.921875 -22.921875 C 44.328125 -17.492188 42.4375 -13.113281 40.25 -9.78125 C 43.476562 -7.425781 46.597656 -5.476562 49.609375 -3.9375 C 52.617188 -2.40625 55.164062 -1.421875 57.25 -0.984375 Z M 16.59375 -43.53125 C 16.59375 -39.257812 18.015625 -34.742188 20.859375 -29.984375 C 23.867188 -32.222656 26.179688 -34.394531 27.796875 -36.5 C 29.421875 -38.613281 30.234375 -40.984375 30.234375 -43.609375 C 30.234375 -46.023438 29.585938 -47.914062 28.296875 -49.28125 C 27.003906 -50.65625 25.265625 -51.34375 23.078125 -51.34375 C 18.753906 -51.34375 16.59375 -48.738281 16.59375 -43.53125 Z M 24.234375 -1.484375 C 28.828125 -1.484375 32.769531 -3.207031 36.0625 -6.65625 L 34.578125 -7.890625 C 31.296875 -10.460938 28.132812 -13.320312 25.09375 -16.46875 C 22.050781 -19.613281 19.4375 -22.75 17.25 -25.875 C 15.113281 -24.175781 13.457031 -22.378906 12.28125 -20.484375 C 11.101562 -18.597656 10.515625 -16.476562 10.515625 -14.125 C 10.515625 -11.820312 11.101562 -9.695312 12.28125 -7.75 C 13.457031 -5.8125 15.097656 -4.28125 17.203125 -3.15625 C 19.316406 -2.039062 21.660156 -1.484375 24.234375 -1.484375 Z M 24.234375 -1.484375 "/></g></g></g></svg>